<?xml version="1.0" standalone="no"?><!DOCTYPE svg PUBLIC "-//W3C//DTD SVG 1.1//EN" "http://www.w3.org/Graphics/SVG/1.1/DTD/svg11.dtd"><svg t="1742310057872" class="icon" viewBox="0 0 1024 1024" version="1.1" xmlns="http://www.w3.org/2000/svg" p-id="6035" xmlns:xlink="http://www.w3.org/1999/xlink" width="200" height="200"><path d="M585.9 511.7l358.3-357.3c9.6-9.6 15.1-23.2 15.1-37.3s-5.5-27.2-15.1-37.3c-10.1-10.1-23.2-15.1-37.3-15.1-14.1 0-27.2 5.5-37.3 15.1L511.3 437.7 154 79.4c-9.6-9.6-23.2-15.1-37.3-15.1s-27.2 5.5-37.3 15.1c-10.1 10.1-15.1 23.2-15.1 37.3s5.5 27.2 15.1 37.3l357.3 358.3L78.5 870.5c-10.1 10.1-15.1 23.2-15.1 37.3 0 14.1 5.5 27.2 15.1 37.3 10.1 10.1 23.2 15.1 37.3 15.1s27.2-5.5 37.3-15.1l358.3-358.3 357.3 357.3c20.7 20.7 53.9 20.7 74.1 0 20.7-20.7 20.7-53.9 0-74.1L585.9 511.7z" p-id="6036"></path></svg>