<?xml version="1.0" standalone="no"?><!DOCTYPE svg PUBLIC "-//W3C//DTD SVG 1.1//EN" "http://www.w3.org/Graphics/SVG/1.1/DTD/svg11.dtd"><svg t="1744684527882" class="icon" viewBox="0 0 1024 1024" version="1.1" xmlns="http://www.w3.org/2000/svg" p-id="18096" xmlns:xlink="http://www.w3.org/1999/xlink" width="200" height="200"><path d="M512 85.333333C276.352 85.333333 85.333333 276.352 85.333333 512s191.018667 426.666667 426.666667 426.666667 426.666667-191.018667 426.666667-426.666667S747.648 85.333333 512 85.333333z m0 117.333334a138.666667 138.666667 0 1 1 0 277.333333 138.666667 138.666667 0 0 1 0-277.333333zM512 853.333333a340.906667 340.906667 0 0 1-283.562667-151.338666C276.266667 632.448 428.629333 597.333333 512 597.333333s235.733333 35.114667 283.562667 104.661334A340.906667 340.906667 0 0 1 512 853.333333z" p-id="18097" fill="#707070"></path></svg>