<?xml version="1.0" standalone="no"?><!DOCTYPE svg PUBLIC "-//W3C//DTD SVG 1.1//EN" "http://www.w3.org/Graphics/SVG/1.1/DTD/svg11.dtd"><svg t="1745632699425" class="icon" viewBox="0 0 1228 1024" version="1.1" xmlns="http://www.w3.org/2000/svg" p-id="3768" xmlns:xlink="http://www.w3.org/1999/xlink" width="239.84375" height="200"><path d="M752.194202 301.854319a98.11762 98.11762 0 0 0 50.530574 85.117035 103.88203 103.88203 0 0 0 101.183795 0 97.013796 97.013796 0 0 0 0-170.356717 103.88203 103.88203 0 0 0-101.183795 0 98.11762 98.11762 0 0 0-50.530574 85.852917z" fill="#333333" p-id="3769"></path><path d="M1039.065593 1022.160295H187.404654A184.706419 184.706419 0 0 1 0 839.906816V182.27347A184.706419 184.706419 0 0 1 187.404654 0.019991h851.660939A184.706419 184.706419 0 0 1 1226.470246 182.27347v657.755993a184.706419 184.706419 0 0 1-187.404653 182.130832zM187.404654 40.125569A144.232901 144.232901 0 0 0 41.2094 182.150823v657.633346l311.278149-344.883433a61.323512 61.323512 0 0 1 91.985268 2.330293l277.182276 338.0152 188.631124-200.527885a61.323512 61.323512 0 0 1 89.654975 1.103823l185.197007 205.065825v-658.614522A144.110254 144.110254 0 0 0 1038.820299 40.370863z" fill="#333333" p-id="3770"></path></svg>