<?xml version="1.0" standalone="no"?><!DOCTYPE svg PUBLIC "-//W3C//DTD SVG 1.1//EN" "http://www.w3.org/Graphics/SVG/1.1/DTD/svg11.dtd"><svg t="1744682974605" class="icon" viewBox="0 0 1137 1024" version="1.1" xmlns="http://www.w3.org/2000/svg" p-id="13549" xmlns:xlink="http://www.w3.org/1999/xlink" width="222.0703125" height="200"><path d="M441.985 225.797c7.192 0 14.417 2.387 20.463 7.161L778.567 487.24a32.62 32.62 0 0 1 0 50.793l-314.75 252.945a32.589 32.589 0 0 1-40.832-50.792l283.148-227.55L421.585 283.72a32.589 32.589 0 0 1 20.432-57.953z m-246.135 0c7.16 0 14.417 2.387 20.464 7.161L532.368 487.24a32.62 32.62 0 0 1 0 50.793l-314.75 252.945a32.589 32.589 0 0 1-40.8-50.792l283.18-227.55-284.58-228.917a32.589 32.589 0 0 1 20.432-57.953z" p-id="13550" fill="#5698f6"></path></svg>