<svg xmlns="http://www.w3.org/2000/svg" viewBox="0 0 24 24">
  <!-- 圆形黄色背景 -->
  <circle cx="12" cy="12" r="10" fill="#faad14"/>
  
  <!-- 白色锁头 -->
  <path d="M15.5 10h-0.5V8c0-1.66-1.34-3-3-3S9 6.34 9 8v2H8.5c-0.83 0-1.5 0.67-1.5 1.5v5c0 0.83 0.67 1.5 1.5 1.5h7c0.83 0 1.5-0.67 1.5-1.5v-5c0-0.83-0.67-1.5-1.5-1.5zM10.5 8c0-0.83 0.67-1.5 1.5-1.5s1.5 0.67 1.5 1.5v2h-3V8z" fill="white"/>
  
  <!-- 钥匙孔形状 -->
  <path d="M12 13.5c-0.6 0-1 0.4-1 1c0 0.5 0.3 0.9 0.8 1v1c0 0.1 0.1 0.2 0.2 0.2s0.2-0.1 0.2-0.2v-1c0.4-0.1 0.8-0.5 0.8-1C13 13.9 12.6 13.5 12 13.5z" fill="#faad14"/>
  
  <!-- 锁环细节 -->
  <path d="M10.5 8c0-0.83 0.67-1.5 1.5-1.5s1.5 0.67 1.5 1.5v2h-3V8z" fill="#faad14" opacity="0.2"/>
</svg> 