<?xml version="1.0" standalone="no"?><!DOCTYPE svg PUBLIC "-//W3C//DTD SVG 1.1//EN" "http://www.w3.org/Graphics/SVG/1.1/DTD/svg11.dtd"><svg t="1747506478570" class="icon" viewBox="0 0 1339 1024" version="1.1" xmlns="http://www.w3.org/2000/svg" p-id="1526" xmlns:xlink="http://www.w3.org/1999/xlink" width="261.5234375" height="200"><path d="M791.630769 508.061538c0 31.507692 23.630769 55.138462 55.138462 55.138462h161.476923c31.507692 0 55.138462-23.630769 55.138461-55.138462 0-31.507692-23.630769-55.138462-55.138461-55.138461h-161.476923c-31.507692 0-55.138462 27.569231-55.138462 55.138461zM181.169231 913.723077c-39.384615 0-70.892308-31.507692-70.892308-70.892308V181.169231c0-39.384615 31.507692-70.892308 70.892308-70.892308h740.430769c31.507692 0 55.138462-23.630769 55.138462-55.138461 0-31.507692-23.630769-55.138462-55.138462-55.138462H181.169231C82.707692 0 0 82.707692 0 181.169231v661.661538C0 941.292308 82.707692 1024 181.169231 1024c31.507692 0 55.138462-23.630769 55.138461-55.138462 0-31.507692-23.630769-55.138462-55.138461-55.138461z m582.892307-405.661539c0-31.507692-23.630769-55.138462-55.138461-55.138461H342.646154c-31.507692 0-55.138462 23.630769-55.138462 55.138461 0 31.507692 23.630769 55.138462 55.138462 55.138462H708.923077c27.569231 0 55.138462-23.630769 55.138461-55.138462zM1157.907692 0c-31.507692 0-55.138462 23.630769-55.138461 55.138462 0 31.507692 23.630769 55.138462 55.138461 55.138461 39.384615 0 70.892308 31.507692 70.892308 70.892308v661.661538c0 39.384615-31.507692 70.892308-70.892308 70.892308H417.476923c-31.507692 0-55.138462 23.630769-55.138461 55.138461 0 31.507692 23.630769 55.138462 55.138461 55.138462h740.430769c98.461538 0 181.169231-82.707692 181.169231-181.169231V181.169231C1339.076923 82.707692 1256.369231 0 1157.907692 0z" fill="#1296db" p-id="1527"></path></svg>